<mxfile host="app.diagrams.net" agent="Mozilla/5.0 (Windows NT 10.0; Win64; x64) AppleWebKit/537.36 (KHTML, like Gecko) Chrome/140.0.0.0 Safari/537.36" version="27.1.6">
  <diagram name="Page-1" id="2gd0ypYWgnyMLC7ytH66">
    <mxGraphModel dx="1641" dy="971" grid="0" gridSize="10" guides="1" tooltips="1" connect="1" arrows="1" fold="1" page="1" pageScale="1" pageWidth="2000" pageHeight="1200" math="0" shadow="0">
      <root>
        <mxCell id="0" />
        <mxCell id="1" parent="0" />
        <mxCell id="Zouj0tRTCZzd18_7H21M-33" style="edgeStyle=orthogonalEdgeStyle;rounded=0;orthogonalLoop=1;jettySize=auto;html=1;exitX=1;exitY=0.5;exitDx=0;exitDy=0;entryX=0;entryY=0.5;entryDx=0;entryDy=0;" edge="1" parent="1" source="Zouj0tRTCZzd18_7H21M-24" target="Zouj0tRTCZzd18_7H21M-29">
          <mxGeometry relative="1" as="geometry" />
        </mxCell>
        <mxCell id="Zouj0tRTCZzd18_7H21M-34" value="视频数据" style="edgeLabel;html=1;align=center;verticalAlign=middle;resizable=0;points=[];" vertex="1" connectable="0" parent="Zouj0tRTCZzd18_7H21M-33">
          <mxGeometry x="-0.1072" y="1" relative="1" as="geometry">
            <mxPoint x="-1" as="offset" />
          </mxGeometry>
        </mxCell>
        <mxCell id="Zouj0tRTCZzd18_7H21M-24" value="监控摄像头" style="rounded=0;whiteSpace=wrap;html=1;fontSize=16;" vertex="1" parent="1">
          <mxGeometry x="98" y="199" width="80" height="80" as="geometry" />
        </mxCell>
        <mxCell id="Zouj0tRTCZzd18_7H21M-48" style="edgeStyle=orthogonalEdgeStyle;rounded=0;orthogonalLoop=1;jettySize=auto;html=1;exitX=1;exitY=0.5;exitDx=0;exitDy=0;entryX=0.5;entryY=1;entryDx=0;entryDy=0;" edge="1" parent="1" source="Zouj0tRTCZzd18_7H21M-25" target="Zouj0tRTCZzd18_7H21M-44">
          <mxGeometry relative="1" as="geometry" />
        </mxCell>
        <mxCell id="Zouj0tRTCZzd18_7H21M-49" value="符合条件的气象数据" style="edgeLabel;html=1;align=center;verticalAlign=middle;resizable=0;points=[];" vertex="1" connectable="0" parent="Zouj0tRTCZzd18_7H21M-48">
          <mxGeometry x="-0.476" relative="1" as="geometry">
            <mxPoint as="offset" />
          </mxGeometry>
        </mxCell>
        <mxCell id="Zouj0tRTCZzd18_7H21M-25" value="1.1.3" style="swimlane;html=1;startSize=20;fontStyle=1;collapsible=0;horizontal=1;swimlaneLine=1;strokeWidth=2;swimlaneFillColor=#ffffff;whiteSpace=wrap;rounded=1;fontSize=15;" vertex="1" parent="1">
          <mxGeometry x="293" y="462" width="158" height="64" as="geometry" />
        </mxCell>
        <mxCell id="Zouj0tRTCZzd18_7H21M-26" value="采集气象数据" style="text;html=1;align=center;verticalAlign=middle;whiteSpace=wrap;rounded=0;fontSize=15;fontStyle=1" vertex="1" parent="Zouj0tRTCZzd18_7H21M-25">
          <mxGeometry x="28" y="26" width="102" height="30" as="geometry" />
        </mxCell>
        <mxCell id="Zouj0tRTCZzd18_7H21M-47" style="edgeStyle=orthogonalEdgeStyle;rounded=0;orthogonalLoop=1;jettySize=auto;html=1;exitX=1;exitY=0.5;exitDx=0;exitDy=0;entryX=0;entryY=0.5;entryDx=0;entryDy=0;" edge="1" parent="1" source="Zouj0tRTCZzd18_7H21M-27" target="Zouj0tRTCZzd18_7H21M-44">
          <mxGeometry relative="1" as="geometry" />
        </mxCell>
        <mxCell id="Zouj0tRTCZzd18_7H21M-27" value="1.1.2" style="swimlane;html=1;startSize=20;fontStyle=1;collapsible=0;horizontal=1;swimlaneLine=1;strokeWidth=2;swimlaneFillColor=#ffffff;whiteSpace=wrap;rounded=1;fontSize=15;" vertex="1" parent="1">
          <mxGeometry x="293" y="326" width="158" height="64" as="geometry" />
        </mxCell>
        <mxCell id="Zouj0tRTCZzd18_7H21M-28" value="清洗传感器数据" style="text;html=1;align=center;verticalAlign=middle;whiteSpace=wrap;rounded=0;fontSize=15;fontStyle=1" vertex="1" parent="Zouj0tRTCZzd18_7H21M-27">
          <mxGeometry x="21" y="25" width="116" height="30" as="geometry" />
        </mxCell>
        <mxCell id="Zouj0tRTCZzd18_7H21M-46" style="edgeStyle=orthogonalEdgeStyle;rounded=0;orthogonalLoop=1;jettySize=auto;html=1;exitX=1;exitY=0.5;exitDx=0;exitDy=0;entryX=0.5;entryY=0;entryDx=0;entryDy=0;" edge="1" parent="1" source="Zouj0tRTCZzd18_7H21M-29" target="Zouj0tRTCZzd18_7H21M-44">
          <mxGeometry relative="1" as="geometry" />
        </mxCell>
        <mxCell id="Zouj0tRTCZzd18_7H21M-29" value="1.1.1" style="swimlane;html=1;startSize=20;fontStyle=1;collapsible=0;horizontal=1;swimlaneLine=1;strokeWidth=2;swimlaneFillColor=#ffffff;whiteSpace=wrap;rounded=1;fontSize=15;" vertex="1" parent="1">
          <mxGeometry x="293" y="207" width="158" height="64" as="geometry" />
        </mxCell>
        <mxCell id="Zouj0tRTCZzd18_7H21M-30" value="清洗摄像头数据" style="text;html=1;align=center;verticalAlign=middle;whiteSpace=wrap;rounded=0;fontSize=15;fontStyle=1" vertex="1" parent="Zouj0tRTCZzd18_7H21M-29">
          <mxGeometry x="23.5" y="26" width="111" height="30" as="geometry" />
        </mxCell>
        <mxCell id="Zouj0tRTCZzd18_7H21M-41" style="edgeStyle=orthogonalEdgeStyle;rounded=0;orthogonalLoop=1;jettySize=auto;html=1;exitX=1;exitY=0.5;exitDx=0;exitDy=0;entryX=0;entryY=0.5;entryDx=0;entryDy=0;" edge="1" parent="1" source="Zouj0tRTCZzd18_7H21M-35" target="Zouj0tRTCZzd18_7H21M-27">
          <mxGeometry relative="1" as="geometry" />
        </mxCell>
        <mxCell id="Zouj0tRTCZzd18_7H21M-42" value="传感器数据" style="edgeLabel;html=1;align=center;verticalAlign=middle;resizable=0;points=[];" vertex="1" connectable="0" parent="Zouj0tRTCZzd18_7H21M-41">
          <mxGeometry x="-0.1536" y="3" relative="1" as="geometry">
            <mxPoint x="5" y="3" as="offset" />
          </mxGeometry>
        </mxCell>
        <mxCell id="Zouj0tRTCZzd18_7H21M-35" value="传感器数据" style="rounded=0;whiteSpace=wrap;html=1;fontSize=16;" vertex="1" parent="1">
          <mxGeometry x="98" y="318" width="80" height="80" as="geometry" />
        </mxCell>
        <mxCell id="Zouj0tRTCZzd18_7H21M-39" style="edgeStyle=orthogonalEdgeStyle;rounded=0;orthogonalLoop=1;jettySize=auto;html=1;exitX=1;exitY=0.5;exitDx=0;exitDy=0;entryX=0;entryY=0.5;entryDx=0;entryDy=0;" edge="1" parent="1" source="Zouj0tRTCZzd18_7H21M-36" target="Zouj0tRTCZzd18_7H21M-25">
          <mxGeometry relative="1" as="geometry" />
        </mxCell>
        <mxCell id="Zouj0tRTCZzd18_7H21M-40" value="气象数据" style="edgeLabel;html=1;align=center;verticalAlign=middle;resizable=0;points=[];" vertex="1" connectable="0" parent="Zouj0tRTCZzd18_7H21M-39">
          <mxGeometry x="0.0088" y="-1" relative="1" as="geometry">
            <mxPoint x="-1" as="offset" />
          </mxGeometry>
        </mxCell>
        <mxCell id="Zouj0tRTCZzd18_7H21M-36" value="气象服务系统" style="rounded=0;whiteSpace=wrap;html=1;fontSize=16;" vertex="1" parent="1">
          <mxGeometry x="98" y="454" width="80" height="80" as="geometry" />
        </mxCell>
        <mxCell id="Zouj0tRTCZzd18_7H21M-43" value="&amp;nbsp; &amp;nbsp; &amp;nbsp; &amp;nbsp; &amp;nbsp; 报告" style="html=1;dashed=0;whiteSpace=wrap;shape=mxgraph.dfd.dataStoreID;align=left;spacingLeft=3;points=[[0,0],[0.5,0],[1,0],[0,0.5],[1,0.5],[0,1],[0.5,1],[1,1]];" vertex="1" parent="1">
          <mxGeometry x="572" y="759" width="100" height="30" as="geometry" />
        </mxCell>
        <mxCell id="Zouj0tRTCZzd18_7H21M-44" value="1.1.4" style="swimlane;html=1;startSize=20;fontStyle=1;collapsible=0;horizontal=1;swimlaneLine=1;strokeWidth=2;swimlaneFillColor=#ffffff;whiteSpace=wrap;rounded=1;fontSize=15;" vertex="1" parent="1">
          <mxGeometry x="572" y="326" width="158" height="64" as="geometry" />
        </mxCell>
        <mxCell id="Zouj0tRTCZzd18_7H21M-45" value="挑选出异常数据" style="text;html=1;align=center;verticalAlign=middle;whiteSpace=wrap;rounded=0;fontSize=15;fontStyle=1" vertex="1" parent="Zouj0tRTCZzd18_7H21M-44">
          <mxGeometry x="21" y="25" width="116" height="30" as="geometry" />
        </mxCell>
      </root>
    </mxGraphModel>
  </diagram>
</mxfile>
